<svg width="512" height="512" viewBox="0 0 512 512" fill="none" xmlns="http://www.w3.org/2000/svg">
<g clip-path="url(#clip0)">
<path d="M256 186.667C244.203 186.667 234.667 177.131 234.667 165.333V106.667C234.667 71.3813 205.952 42.6667 170.667 42.6667C135.381 42.6667 106.667 71.3813 106.667 106.667V165.333C106.667 177.131 97.1307 186.667 85.3333 186.667C73.536 186.667 64 177.131 64 165.333V106.667C64 47.8507 111.851 0 170.667 0C229.483 0 277.333 47.8507 277.333 106.667V165.333C277.333 177.131 267.797 186.667 256 186.667Z" fill="#90A4AE"/>
<path d="M283.333 426.333H38C11.5467 426.333 -10 404.787 -10 378.333V197C-10 170.547 11.5467 149 38 149H283.333C309.787 149 331.333 170.547 331.333 197V378.333C331.333 404.787 309.787 426.333 283.333 426.333Z" fill="#FFC107"/>
<path d="M170.667 0C111.851 0 64 47.8507 64 106.667V149.333H106.667V106.667C106.667 71.3813 135.381 42.6667 170.667 42.6667V0Z" fill="#7D8F97"/>
<path d="M170.667 149.334H106.667H64H48C21.5467 149.334 0 170.88 0 197.334V378.667C0 405.121 21.5467 426.667 48 426.667H170.667V149.334Z" fill="#DEA806"/>
<path d="M373.343 234.666C296.885 234.666 234.677 296.874 234.677 373.333C234.677 449.792 296.885 512 373.343 512C449.802 512 512.01 449.792 512.01 373.333C512.01 296.874 449.802 234.666 373.343 234.666Z" fill="#4CAF50"/>
<path d="M442.715 339.37L368.048 424.704C364.165 429.163 358.64 431.786 352.709 432H352.005C346.352 432 340.912 429.76 336.923 425.749L294.256 383.082C285.915 374.741 285.915 361.258 294.256 352.917C302.597 344.576 316.08 344.576 324.421 352.917L350.96 379.456L410.629 311.296C418.373 302.464 431.856 301.525 440.709 309.29C449.584 317.034 450.48 330.496 442.715 339.37Z" fill="white"/>
<path d="M373.343 234.666C296.885 234.666 234.677 296.874 234.677 373.333C234.677 449.792 296.885 512 373.343 512H373.386V418.602L368.053 424.704C364.17 429.162 358.645 431.786 352.714 432H352.01C346.357 432 340.917 429.76 336.927 425.749L294.261 383.082C285.919 374.741 285.919 361.258 294.261 352.917C298.421 348.757 303.882 346.666 309.343 346.666C314.805 346.666 320.266 348.757 324.426 352.917L350.965 379.456L373.386 353.856V234.666C373.365 234.666 373.365 234.666 373.343 234.666V234.666Z" fill="#429846"/>
<path d="M309.339 346.667C303.877 346.667 298.416 348.758 294.256 352.918C285.915 361.259 285.915 374.742 294.256 383.083L336.923 425.75C340.933 429.761 346.352 432.001 352.005 432.001H352.709C358.619 431.787 364.165 429.163 368.048 424.705L373.381 418.603V353.835L350.96 379.435L324.421 352.897C320.261 348.758 314.8 346.667 309.339 346.667V346.667Z" fill="#DEDEDE"/>
</g>
<defs>
<clipPath id="clip0">
<rect width="512" height="512" fill="white"/>
</clipPath>
</defs>
</svg>
