<svg width="512" height="512" viewBox="0 0 512 512" fill="none" xmlns="http://www.w3.org/2000/svg">
<path d="M261.1 174C250.095 174 241.2 165.111 241.2 154.114V99.4286C241.2 66.5376 214.415 39.7714 181.5 39.7714C148.585 39.7714 121.8 66.5376 121.8 99.4286V154.114C121.8 165.111 112.905 174 101.9 174C90.8953 174 82 165.111 82 154.114V99.4286C82 44.6037 126.636 0 181.5 0C236.364 0 281 44.6037 281 99.4286V154.114C281 165.111 272.105 174 261.1 174Z" fill="#90A4AE"/>
<path d="M296.141 398H66.8594C42.1369 398 22 377.878 22 353.173V183.827C22 159.122 42.1369 139 66.8594 139H296.141C320.863 139 341 159.122 341 183.827V353.173C341 377.878 320.863 398 296.141 398Z" fill="#FFC107"/>
<path d="M181 0C126.411 0 82 44.5396 82 99.2857V139H121.6V99.2857C121.6 66.442 148.251 39.7143 181 39.7143V0Z" fill="#7D8F97"/>
<path d="M181 139H121.375H81.625H66.7188C42.0737 139 22 159.122 22 183.827V353.173C22 377.878 42.0737 398 66.7188 398H181V139Z" fill="#DEA806"/>
<path d="M370.5 219C299.096 219 241 277.096 241 348.5C241 419.904 299.096 478 370.5 478C441.904 478 500 419.904 500 348.5C500 277.096 441.904 219 370.5 219ZM370.5 258.846C388.012 258.846 404.21 264.086 418.056 272.792L294.772 396.036C286.086 382.21 280.846 366.012 280.846 348.5C280.846 299.071 321.071 258.846 370.5 258.846ZM370.5 438.154C352.988 438.154 336.79 432.914 322.944 424.208L446.208 300.964C454.914 314.79 460.154 330.988 460.154 348.5C460.154 397.929 419.929 438.154 370.5 438.154Z" fill="#F44336"/>
<path d="M371 219C299.32 219 241 277.096 241 348.5C241 419.904 299.32 478 371 478V438.154C353.42 438.154 337.16 432.914 323.26 424.208L371 376.671V320.329L294.98 396.036C286.26 382.21 281 366.012 281 348.5C281 299.071 321.38 258.846 371 258.846V219Z" fill="#D43A2F"/>
</svg>
