<svg width="590" height="800" viewBox="0 0 590 800" fill="none" xmlns="http://www.w3.org/2000/svg">
<g clip-path="url(#clip0)">
<path d="M495.463 19.5075H0V770.614H495.463V19.5075Z" fill="#535461"/>
<path d="M360.438 790.054L0 770.619V19.5127L360.438 0.0776443V790.054Z" fill="#24A021"/>
<path d="M330.308 435.646C332.774 435.646 334.772 433.598 334.772 431.073C334.772 428.547 332.774 426.5 330.308 426.5C327.843 426.5 325.845 428.547 325.845 431.073C325.845 433.598 327.843 435.646 330.308 435.646Z" fill="#535461"/>
<path d="M330.309 431.755L333.403 437.246L336.497 442.735H330.309H324.121L327.214 437.246L330.309 431.755Z" fill="#535461"/>
<path d="M376.062 790.048L353.986 789.976L354.86 0.0719376H376.062V790.048Z" fill="#24A021"/>
<g opacity="0.1">
<path opacity="0.1" d="M376.304 789.976H353.986L355.102 0H376.304V789.976Z" fill="#24A021"/>
</g>
<path opacity="0.1" d="M330.309 412.781C338.32 412.781 344.815 406.127 344.815 397.919C344.815 389.711 338.32 383.057 330.309 383.057C322.297 383.057 315.802 389.711 315.802 397.919C315.802 406.127 322.297 412.781 330.309 412.781Z" fill="black"/>
<path d="M330.309 410.494C338.32 410.494 344.815 403.84 344.815 395.632C344.815 387.424 338.32 380.77 330.309 380.77C322.297 380.77 315.802 387.424 315.802 395.632C315.802 403.84 322.297 410.494 330.309 410.494Z" fill="#535461"/>
<path opacity="0.1" d="M58.9424 18.4152V774.15" stroke="black" stroke-width="2" stroke-miterlimit="10"/>
<path opacity="0.1" d="M122.549 13.8423V776.436" stroke="black" stroke-width="2" stroke-miterlimit="10"/>
<path opacity="0.1" d="M186.155 10.4126V780.83" stroke="black" stroke-width="2" stroke-miterlimit="10"/>
<path opacity="0.1" d="M249.762 6.98289V785.582" stroke="black" stroke-width="2" stroke-miterlimit="10"/>
<path opacity="0.1" d="M313.368 3.55318V786.547" stroke="black" stroke-width="2" stroke-miterlimit="10"/>
<path d="M516.908 151.277C541.252 151.277 560.987 132.339 560.987 108.977C560.987 85.6157 541.252 66.6774 516.908 66.6774C492.565 66.6774 472.83 85.6157 472.83 108.977C472.83 132.339 492.565 151.277 516.908 151.277Z" fill="#2F2E41"/>
<path d="M388.578 372.493L377.419 388.499C377.419 388.499 323.855 399.931 343.941 417.079C364.028 434.228 393.042 401.074 393.042 401.074L408.664 380.496L388.578 372.493Z" fill="#FFB8B8"/>
<path d="M446.606 190.719C446.606 190.719 432.099 190.719 428.752 211.297C425.404 231.875 422.056 300.469 422.056 300.469C422.056 300.469 375.188 363.347 382.999 371.35C390.811 379.353 399.738 394.215 405.317 391.928C410.897 389.642 458.881 322.191 458.881 322.191L446.606 190.719Z" fill="#24A021"/>
<path opacity="0.1" d="M446.606 190.719C446.606 190.719 432.099 190.719 428.752 211.297C425.404 231.875 422.056 300.469 422.056 300.469C422.056 300.469 375.188 363.347 382.999 371.35C390.811 379.353 399.738 394.215 405.317 391.928C410.897 389.642 458.881 322.191 458.881 322.191L446.606 190.719Z" fill="#24A021"/>
<path d="M491.243 132.414C491.243 132.414 490.127 177 476.736 179.286C463.345 181.573 467.809 196.435 467.809 196.435C467.809 196.435 511.329 222.729 540.343 196.435L545.922 182.716C545.922 182.716 525.836 167.854 534.763 147.276L491.243 132.414Z" fill="#FFB8B8"/>
<path d="M416.476 406.79C416.476 406.79 350.638 532.546 375.188 571.416C399.738 610.286 436.563 690.313 442.142 690.313C447.722 690.313 478.967 674.307 476.735 664.018C474.504 653.729 441.026 577.132 432.099 570.273C423.172 563.414 427.635 545.122 428.751 543.979C429.867 542.835 466.692 482.244 466.692 482.244C466.692 482.244 465.576 578.276 470.04 593.138C474.504 608 468.924 714.321 474.504 718.894C480.083 723.467 505.749 731.469 510.213 724.61C514.676 717.75 528.067 613.716 519.14 589.708L535.879 425.082L416.476 406.79Z" fill="#2F2E41"/>
<path d="M476.734 712.034L448.837 764.623C448.837 764.623 408.664 794.347 436.562 798.92C464.459 803.493 481.198 792.061 481.198 792.061L505.748 773.769V721.18L476.734 712.034Z" fill="#2F2E41"/>
<path d="M438.795 682.31L453.302 717.751C453.302 717.751 458.881 732.613 453.302 736.042C447.722 739.472 432.099 760.05 442.143 762.337C444.163 762.742 446.216 762.951 448.275 762.961C456.638 763.106 464.943 761.515 472.69 758.285C480.437 755.055 487.467 750.253 493.355 744.167L502.402 734.899C502.402 734.899 471.413 661.791 471.843 662.333C472.272 662.875 438.795 682.31 438.795 682.31Z" fill="#2F2E41"/>
<path d="M519.14 159.851C540.094 159.851 557.081 142.448 557.081 120.981C557.081 99.5138 540.094 82.1111 519.14 82.1111C498.186 82.1111 481.199 99.5138 481.199 120.981C481.199 142.448 498.186 159.851 519.14 159.851Z" fill="#FFB8B8"/>
<path d="M540.9 175.285L529.183 187.289C529.183 187.289 493.474 201.008 476.735 187.289C476.735 187.289 482.873 174.142 482.873 175.285C482.873 176.428 434.331 183.859 429.867 204.437C425.403 225.016 433.215 260.456 433.215 260.456C433.215 260.456 401.969 411.363 414.244 414.793C426.519 418.223 541.458 446.804 540.342 425.082C539.226 403.361 549.269 314.188 549.269 314.188L588.326 237.591C588.326 237.591 582.746 212.44 569.356 204.437C555.965 196.435 540.9 175.285 540.9 175.285Z" fill="#24A021"/>
<path d="M491.242 398.788L476.735 407.934C476.735 407.934 420.94 446.804 449.954 453.663C478.967 460.522 495.706 426.225 495.706 426.225L506.865 412.506L491.242 398.788Z" fill="#FFB8B8"/>
<path opacity="0.1" d="M573.819 230.732L583.862 241.021C583.862 241.021 590.558 337.053 577.167 356.488C563.776 375.923 502.401 428.512 499.053 425.082C495.706 421.652 474.503 404.504 478.967 402.217C483.431 399.931 542.778 336.402 542.778 336.402L538.11 247.88L573.819 230.732Z" fill="black"/>
<path d="M578.283 227.302L588.326 237.591C588.326 237.591 595.022 333.623 581.631 353.058C568.24 372.493 506.865 425.082 503.517 421.652C500.17 418.223 478.967 401.074 483.431 398.788C487.895 396.501 547.242 332.972 547.242 332.972L542.574 244.451L578.283 227.302Z" fill="#24A021"/>
<path d="M503.448 65.7687C503.448 65.7687 490.551 60.964 472.964 71.174L482.344 73.5764C482.344 73.5764 468.274 74.7776 466.516 93.9964H472.964C472.964 93.9964 468.861 110.813 472.964 115.618L475.602 110.513L483.223 126.128L484.982 118.32L488.499 119.521L490.844 106.909C490.844 106.909 496.707 115.918 501.396 116.519V108.711C501.396 108.711 514.294 123.726 518.397 123.125L512.535 114.717L520.742 116.518L517.225 110.513L538.329 116.518L533.639 110.513L548.295 115.317L555.33 118.32C555.33 118.32 565.296 94.8973 551.226 78.6814C537.157 62.4655 516.638 58.8619 503.448 65.7687Z" fill="#2F2E41"/>
</g>
<defs>
<clipPath id="clip0">
<rect width="590" height="800" fill="white"/>
</clipPath>
</defs>
</svg>
