<svg width="800" height="608" viewBox="0 0 800 608" fill="none" xmlns="http://www.w3.org/2000/svg">
<g clip-path="url(#clip0)">
<path d="M644.137 0.365021H0.274933V412.723H644.137V0.365021Z" fill="#E6E6E6"/>
<path d="M625.725 52.0849H18.686V388.328H625.725V52.0849Z" fill="white"/>
<path d="M643.862 0H0V27.3536H643.862V0Z" fill="#24A021"/>
<path d="M20.327 19.0544C23.127 19.0544 25.3968 16.7846 25.3968 13.9846C25.3968 11.1846 23.127 8.91483 20.327 8.91483C17.527 8.91483 15.2572 11.1846 15.2572 13.9846C15.2572 16.7846 17.527 19.0544 20.327 19.0544Z" fill="#E6E6E6"/>
<path d="M39.5706 19.0544C42.3706 19.0544 44.6404 16.7846 44.6404 13.9846C44.6404 11.1846 42.3706 8.91483 39.5706 8.91483C36.7706 8.91483 34.5008 11.1846 34.5008 13.9846C34.5008 16.7846 36.7706 19.0544 39.5706 19.0544Z" fill="#E6E6E6"/>
<path d="M58.8142 19.0544C61.6142 19.0544 63.884 16.7846 63.884 13.9846C63.884 11.1846 61.6142 8.91483 58.8142 8.91483C56.0143 8.91483 53.7444 11.1846 53.7444 13.9846C53.7444 16.7846 56.0143 19.0544 58.8142 19.0544Z" fill="#E6E6E6"/>
<path d="M229.824 86.9728H73.8438V353.44H229.824V86.9728Z" fill="#E6E6E6"/>
<path d="M386.733 86.9728H256.75V160.321H386.733V86.9728Z" fill="#24A021"/>
<path d="M386.733 180.747H256.75V259.666H386.733V180.747Z" fill="#E6E6E6"/>
<path d="M386.733 280.092H256.75V353.44H386.733V280.092Z" fill="#E6E6E6"/>
<path d="M570.568 86.9728H414.587V203.098H570.568V86.9728Z" fill="#E6E6E6"/>
<path d="M570.568 237.315H414.587V353.44H570.568V237.315Z" fill="#24A021"/>
<path d="M736.639 206.679C726.35 189.144 705.994 188.326 705.994 188.326C705.994 188.326 686.158 185.768 673.434 212.475C661.574 237.368 645.205 261.402 670.799 267.23L675.422 252.717L678.285 268.31C681.929 268.575 685.584 268.638 689.235 268.499C716.644 267.606 742.746 268.76 741.906 258.84C740.789 245.652 746.539 223.552 736.639 206.679Z" fill="#2F2E41"/>
<path d="M639.068 300.306L630.068 323.306L585.068 365.306C585.068 365.306 558.068 385.306 570.068 391.306C582.068 397.306 593.068 369.306 593.068 369.306L641.068 340.306L651.068 307.306L639.068 300.306Z" fill="#FFB8B8"/>
<path d="M654.068 555.306L663.068 578.306H676.068L665.068 551.306L654.068 555.306Z" fill="#FFB8B8"/>
<path d="M693.068 565.306L702.068 588.306H715.068L704.068 561.306L693.068 565.306Z" fill="#FFB8B8"/>
<path d="M692.068 569.306L709.068 565.306L687.068 476.306L694.373 407.825L694.568 407.806C694.568 407.806 707.068 359.306 697.068 346.306C687.068 333.306 637.068 338.306 637.068 338.306C637.068 338.306 618.068 357.306 619.068 400.306C620.068 443.306 619.068 480.306 626.068 497.306C633.068 514.306 653.068 559.306 653.068 559.306L669.068 557.306L652.068 483.306L649.35 418.979C651.513 444.757 655.867 493.637 658.068 497.306C661.068 502.306 692.068 569.306 692.068 569.306Z" fill="#2F2E41"/>
<path d="M743.068 321.306L750.068 346.306L781.068 402.306C781.068 402.306 808.068 426.306 797.068 429.306C786.068 432.306 769.068 407.306 769.068 407.306L734.068 358.306L725.068 322.306L743.068 321.306Z" fill="#FFB8B8"/>
<path d="M707.068 250.306C720.875 250.306 732.068 239.113 732.068 225.306C732.068 211.499 720.875 200.306 707.068 200.306C693.261 200.306 682.068 211.499 682.068 225.306C682.068 239.113 693.261 250.306 707.068 250.306Z" fill="#FFB8B8"/>
<path d="M694.068 238.306L688.068 257.306L678.068 279.306L715.068 264.306C715.068 264.306 713.068 248.306 715.068 244.306L694.068 238.306Z" fill="#FFB8B8"/>
<path d="M737.068 278.306L714.068 259.306L688.068 270.306L689.087 254.08L661.346 262.94L657.068 264.306L651.068 295.306C651.068 295.306 647.068 298.306 643.068 315.306C640.759 325.296 637.407 335.016 633.068 344.306C633.068 344.306 676.068 327.306 697.068 350.306C697.068 350.306 700.068 348.306 699.068 345.306C698.068 342.306 708.068 327.306 708.068 327.306C708.068 327.306 708.068 330.306 712.068 324.306C716.068 318.306 719.068 317.306 719.068 317.306L737.068 278.306Z" fill="#24A021"/>
<path d="M663.068 267.306L658.7 263.784C658.7 263.784 655.068 262.306 652.068 267.306C649.068 272.306 634.068 303.306 634.068 303.306L652.068 312.306L663.068 267.306Z" fill="#24A021"/>
<path d="M723.068 277.306L737.068 278.306C737.068 278.306 745.068 282.306 745.068 288.306C745.068 294.306 747.068 326.306 747.068 326.306L725.068 333.306L716.068 305.306L723.068 277.306Z" fill="#24A021"/>
<path d="M660.179 574.806L643.179 581.806C643.179 581.806 623.179 582.806 626.179 592.806C629.179 602.806 659.179 595.806 659.179 595.806C659.179 595.806 686.179 596.806 686.179 589.806C686.179 582.806 682.179 574.806 678.179 574.806H660.179Z" fill="#2F2E41"/>
<path d="M698.179 583.806L681.179 590.806C681.179 590.806 661.179 591.806 664.179 601.806C667.179 611.806 697.179 604.806 697.179 604.806C697.179 604.806 724.179 605.806 724.179 598.806C724.179 591.806 720.179 583.806 716.179 583.806H698.179Z" fill="#2F2E41"/>
<path d="M732.09 204.989L711.979 194.363L684.208 198.71L678.462 224.307L692.765 223.753L696.761 214.348V223.598L703.361 223.342L707.191 208.37L709.585 224.307L733.048 223.824L732.09 204.989Z" fill="#2F2E41"/>
<path d="M597.58 83.5464C577.576 66.6667 553.097 55.9652 527.122 52.7441C501.147 49.523 474.795 53.9211 451.274 65.4034C427.753 76.8856 408.077 94.9569 394.639 117.418C381.201 139.879 374.581 165.762 375.585 191.917C376.59 218.072 385.174 243.371 400.294 264.736C415.415 286.101 436.419 302.61 460.751 312.256C485.083 321.901 511.694 324.266 537.346 319.063C562.998 313.86 586.584 301.313 605.235 282.949L770.853 422.697C772.102 423.751 773.546 424.549 775.103 425.044C776.66 425.54 778.3 425.725 779.928 425.587C781.556 425.449 783.141 424.992 784.593 424.241C786.044 423.491 787.334 422.462 788.388 421.213C789.441 419.964 790.239 418.52 790.734 416.963C791.23 415.405 791.414 413.766 791.276 412.138C791.138 410.509 790.68 408.924 789.93 407.473C789.179 406.022 788.15 404.732 786.901 403.679L621.283 263.931C640.522 236.318 648.757 202.515 644.372 169.147C639.988 135.779 623.3 105.252 597.58 83.5464V83.5464ZM586.903 250.474C574.001 265.765 556.854 276.886 537.631 282.432C518.408 287.978 497.972 287.699 478.907 281.63C459.843 275.562 443.006 263.976 430.526 248.338C418.046 232.701 410.483 213.713 408.794 193.778C407.105 173.842 411.366 153.853 421.037 136.339C430.709 118.825 445.357 104.572 463.128 95.3824C480.9 86.1929 500.998 82.4798 520.88 84.7126C540.762 86.9454 559.536 95.0238 574.827 107.926C595.331 125.228 608.123 149.966 610.388 176.699C612.652 203.432 604.205 229.97 586.903 250.474V250.474Z" fill="#3F3D56"/>
<path opacity="0.3" d="M444.355 262.551C424.949 246.174 412.412 223.099 409.232 197.906C406.052 172.714 412.462 147.247 427.19 126.562C425.256 128.51 423.386 130.55 421.58 132.682C413.012 142.834 406.528 154.575 402.498 167.234C398.467 179.893 396.97 193.221 398.091 206.459C399.212 219.696 402.929 232.583 409.031 244.384C415.133 256.185 423.499 266.668 433.652 275.235C443.805 283.802 455.547 290.286 468.206 294.315C480.865 298.345 494.194 299.841 507.431 298.719C520.668 297.597 533.555 293.879 545.355 287.776C557.156 281.674 567.638 273.307 576.205 263.153C578.006 261.018 579.702 258.832 581.294 256.594C563.381 274.592 539.356 285.195 513.987 286.299C488.619 287.402 463.763 278.925 444.355 262.551V262.551Z" fill="black"/>
</g>
<defs>
<clipPath id="clip0">
<rect width="799.703" height="607.188" fill="white"/>
</clipPath>
</defs>
</svg>
