<svg width="700" height="500" viewBox="0 0 700 500" fill="none" xmlns="http://www.w3.org/2000/svg">
<g clip-path="url(#clip0)">
<path d="M0 499.663H112.597" stroke="#3F3D56" stroke-miterlimit="10"/>
<path d="M651.571 86.1154H177.983C170.716 86.1154 164.825 91.9695 164.825 99.191V409.405C164.825 416.627 170.716 422.481 177.983 422.481H651.571C658.838 422.481 664.728 416.627 664.728 409.405V99.191C664.728 91.9695 658.838 86.1154 651.571 86.1154Z" fill="#F2F2F2"/>
<path d="M636.31 64.8819H162.722C155.455 64.8819 149.564 70.736 149.564 77.9574V388.172C149.564 395.393 155.455 401.247 162.722 401.247H636.31C643.577 401.247 649.468 395.393 649.468 388.172V77.9574C649.468 70.736 643.577 64.8819 636.31 64.8819Z" stroke="#3F3D56" stroke-miterlimit="10"/>
<path d="M149.564 97.13H649.468" stroke="#3F3D56" stroke-miterlimit="10"/>
<path opacity="0.3" d="M579.879 172.735H453.163C450.506 172.735 448.353 174.875 448.353 177.515V188.85C448.353 191.491 450.506 193.631 453.163 193.631H579.879C582.536 193.631 584.69 191.491 584.69 188.85V177.515C584.69 174.875 582.536 172.735 579.879 172.735Z" fill="#24A021"/>
<path opacity="0.3" d="M605.993 230.705H427.049C424.392 230.705 422.238 232.846 422.238 235.486V242.776C422.238 245.417 424.392 247.557 427.049 247.557H605.993C608.65 247.557 610.804 245.417 610.804 242.776V235.486C610.804 232.846 608.65 230.705 605.993 230.705Z" fill="#24A021"/>
<path opacity="0.3" d="M605.993 276.543H427.049C424.392 276.543 422.238 278.683 422.238 281.324V288.614C422.238 291.254 424.392 293.395 427.049 293.395H605.993C608.65 293.395 610.804 291.254 610.804 288.614V281.324C610.804 278.683 608.65 276.543 605.993 276.543Z" fill="#24A021"/>
<path opacity="0.3" d="M605.993 322.38H427.049C424.392 322.38 422.238 324.521 422.238 327.161V334.451C422.238 337.092 424.392 339.232 427.049 339.232H605.993C608.65 339.232 610.804 337.092 610.804 334.451V327.161C610.804 324.521 608.65 322.38 605.993 322.38Z" fill="#24A021"/>
<path d="M586.662 165.994H459.947C457.29 165.994 455.136 168.134 455.136 170.775V182.109C455.136 184.75 457.29 186.89 459.947 186.89H586.662C589.319 186.89 591.473 184.75 591.473 182.109V170.775C591.473 168.134 589.319 165.994 586.662 165.994Z" stroke="#3F3D56" stroke-miterlimit="10"/>
<path d="M612.777 223.965H433.832C431.175 223.965 429.021 226.105 429.021 228.746V236.036C429.021 238.676 431.175 240.817 433.832 240.817H612.777C615.433 240.817 617.587 238.676 617.587 236.036V228.746C617.587 226.105 615.433 223.965 612.777 223.965Z" stroke="#3F3D56" stroke-miterlimit="10"/>
<path d="M612.777 269.802H433.832C431.175 269.802 429.021 271.942 429.021 274.583V281.873C429.021 284.513 431.175 286.654 433.832 286.654H612.777C615.433 286.654 617.587 284.513 617.587 281.873V274.583C617.587 271.942 615.433 269.802 612.777 269.802Z" stroke="#3F3D56" stroke-miterlimit="10"/>
<path d="M612.777 315.639H433.832C431.175 315.639 429.021 317.78 429.021 320.42V327.71C429.021 330.351 431.175 332.491 433.832 332.491H612.777C615.433 332.491 617.587 330.351 617.587 327.71V320.42C617.587 317.78 615.433 315.639 612.777 315.639Z" stroke="#3F3D56" stroke-miterlimit="10"/>
<path opacity="0.3" d="M187.548 95.2155C193.168 95.2155 197.723 90.6885 197.723 85.1043C197.723 79.52 193.168 74.9931 187.548 74.9931C181.929 74.9931 177.374 79.52 177.374 85.1043C177.374 90.6885 181.929 95.2155 187.548 95.2155Z" fill="#24A021"/>
<path opacity="0.3" d="M216.037 95.2155C221.656 95.2155 226.211 90.6885 226.211 85.1043C226.211 79.52 221.656 74.9931 216.037 74.9931C210.418 74.9931 205.862 79.52 205.862 85.1043C205.862 90.6885 210.418 95.2155 216.037 95.2155Z" fill="#24A021"/>
<path opacity="0.3" d="M244.525 95.2155C250.144 95.2155 254.699 90.6885 254.699 85.1043C254.699 79.52 250.144 74.9931 244.525 74.9931C238.906 74.9931 234.351 79.52 234.351 85.1043C234.351 90.6885 238.906 95.2155 244.525 95.2155Z" fill="#24A021"/>
<path d="M191.619 91.171C197.238 91.171 201.793 86.6441 201.793 81.0598C201.793 75.4756 197.238 70.9487 191.619 70.9487C186 70.9487 181.444 75.4756 181.444 81.0598C181.444 86.6441 186 91.171 191.619 91.171Z" stroke="#3F3D56" stroke-miterlimit="10"/>
<path d="M220.107 91.171C225.726 91.171 230.281 86.6441 230.281 81.0598C230.281 75.4756 225.726 70.9487 220.107 70.9487C214.488 70.9487 209.933 75.4756 209.933 81.0598C209.933 86.6441 214.488 91.171 220.107 91.171Z" stroke="#3F3D56" stroke-miterlimit="10"/>
<path d="M248.595 91.171C254.214 91.171 258.77 86.6441 258.77 81.0598C258.77 75.4756 254.214 70.9487 248.595 70.9487C242.976 70.9487 238.421 75.4756 238.421 81.0598C238.421 86.6441 242.976 91.171 248.595 91.171Z" stroke="#3F3D56" stroke-miterlimit="10"/>
<path d="M307.507 387.092C305.804 379.294 305.352 368.643 305.925 361.234C305.925 361.234 297.312 323.629 290.535 320.121L290.533 320.123C290.429 320.256 287.14 324.541 286.723 337.8C286.299 351.27 281.5 360.11 281.5 360.11C281.5 360.11 283.053 376.9 282.165 387.092L307.507 387.092Z" fill="#24A021"/>
<path d="M370.164 147.794H213.847C211.729 147.794 209.633 148.208 207.676 149.013C205.72 149.819 203.943 150.999 202.445 152.487C200.948 153.975 199.76 155.741 198.95 157.686C198.14 159.63 197.723 161.713 197.723 163.818V371.068C197.723 373.172 198.14 375.256 198.95 377.2C199.76 379.144 200.948 380.91 202.445 382.398C203.943 383.886 205.72 385.067 207.676 385.872C209.633 386.677 211.729 387.092 213.847 387.092H268.69C266.859 379.542 264.582 367.752 266.888 359.554L266.887 359.549L266.888 359.552C266.996 359.169 267.11 358.792 267.238 358.426C268.822 353.106 269.35 347.53 268.793 342.009C269.811 337.292 269.811 332.415 268.793 327.698C267.099 319.841 265.913 312.123 265.913 312.123C265.913 312.123 264.979 301.74 265.794 295.376C265.812 295.236 265.833 295.104 265.853 294.968C265.565 294.903 265.404 294.865 265.404 294.865C265.404 294.865 267.804 284.061 268.651 277.186C268.851 275.563 269.114 273.505 269.399 271.311C268.617 271.182 267.847 270.988 267.098 270.731C259.474 268.065 257.073 243.932 257.073 243.932V236.285C257.073 236.285 254.532 224.568 263.427 219.377C271.992 214.378 275.412 213.009 275.654 212.915C275.719 212.869 275.783 212.826 275.85 212.775C276.818 212.02 277.584 211.04 278.081 209.921C278.093 209.729 278.096 209.537 278.089 209.347C277.945 206.606 276.024 204.113 274.202 201.937C272.648 200.082 271.094 198.227 269.54 196.371C269.008 195.819 268.599 195.161 268.339 194.44C268.241 194.043 268.198 193.633 268.213 193.224C268.211 193.073 268.212 192.922 268.215 192.771C268.241 191.387 268.278 190.004 268.329 188.621C268.372 187.413 268.679 185.889 269.869 185.641C270.488 185.511 271.308 185.737 271.635 185.199C271.745 184.977 271.773 184.724 271.714 184.484C271.71 184.502 271.709 184.52 271.704 184.538C271.7 184.515 271.696 184.493 271.692 184.471C271.447 183.502 271.299 182.512 271.251 181.514C271.238 181.064 271.302 180.615 271.442 180.186C272.132 178.181 274.506 177.358 276.605 176.979C278.703 176.601 281.059 176.275 282.376 174.608C282.728 174.055 283.111 173.521 283.521 173.008C284.126 172.462 284.868 172.09 285.669 171.932C288.274 171.277 291.025 171.52 293.473 172.62C294.488 173.081 295.508 173.701 296.622 173.63C297.778 173.558 298.766 172.749 299.908 172.552C301.752 172.234 303.516 173.607 304.425 175.233C305.002 176.268 305.29 177.437 305.261 178.619C305.283 179.797 304.855 180.939 304.064 181.815C303.27 182.652 302.086 183.227 301.757 184.329C301.622 184.778 301.653 185.261 301.535 185.714C301.52 185.771 301.496 185.824 301.476 185.879C301.498 185.907 301.522 185.933 301.543 185.961C302.932 187.78 303.862 189.902 304.258 192.15C304.653 194.398 304.501 196.708 303.815 198.886C303.129 201.065 301.929 203.048 300.315 204.672C298.7 206.295 296.719 207.512 294.535 208.219C294.53 208.361 294.524 208.503 294.525 208.646C294.484 209.53 294.635 210.413 294.967 211.235C295.3 212.056 295.806 212.798 296.451 213.408L309.031 218.535C309.031 218.535 316.605 217.623 319.338 228.855C319.776 230.722 319.934 232.643 319.806 234.556C319.707 236.249 319.938 239.231 321.88 243.09C324.986 249.263 324.28 263.435 317.926 264.838C311.908 266.167 309.567 265.609 309.337 265.546L309.323 265.794C309.422 268.453 310.374 291.388 313.832 294.163C314.788 294.931 314.605 295.449 313.821 295.799L313.823 295.801C313.823 295.801 313.829 295.948 313.844 296.213C313.948 297.891 314.481 304.279 316.796 307.913C319.48 312.123 319.198 336.398 319.198 336.398L321.032 350.71C321.032 350.71 319.903 359.55 321.032 361.093C321.673 361.967 322.45 375.52 323.002 387.092H370.164C374.441 387.092 378.542 385.403 381.566 382.398C384.59 379.393 386.289 375.317 386.289 371.068V163.818C386.289 161.713 385.871 159.63 385.061 157.686C384.251 155.741 383.063 153.975 381.566 152.487C380.069 150.999 378.291 149.819 376.335 149.013C374.379 148.208 372.282 147.794 370.164 147.794V147.794Z" fill="#24A021"/>
<path d="M353.886 129.594H197.569C188.663 129.594 181.444 136.768 181.444 145.617V352.868C181.444 361.717 188.663 368.891 197.569 368.891H353.886C362.791 368.891 370.01 361.717 370.01 352.868V145.617C370.01 136.768 362.791 129.594 353.886 129.594Z" stroke="#3F3D56" stroke-miterlimit="10"/>
<path d="M68.3879 216.804C68.3879 216.804 62.0633 214.946 60.7067 216.968C59.3501 218.99 62.5562 233.65 62.5562 233.65L76.4924 234.492L71.6289 222.287L68.3879 216.804Z" fill="#2F2E41"/>
<path d="M19.6331 337.188C19.6331 337.188 32.3136 364.854 22.5482 363.985C12.7827 363.116 8.99316 337.188 8.99316 337.188H19.6331Z" fill="#A0616A"/>
<path d="M102.565 334.306C102.565 334.306 97.0017 364.2 106.265 361.007C115.528 357.814 112.888 331.746 112.888 331.746L102.565 334.306Z" fill="#A0616A"/>
<path d="M65.6906 209.868C65.6906 209.868 65.5448 223.773 70.9377 224.497C76.3305 225.222 67.8768 232.609 67.8768 232.609L58.2572 234.492L44.4107 233.478L38.2891 225.656C38.2891 225.656 49.0748 220.586 44.4107 204.798L65.6906 209.868Z" fill="#A0616A"/>
<path opacity="0.1" d="M65.6906 209.868C65.6906 209.868 65.5448 223.773 70.9377 224.497C76.3305 225.222 67.8768 232.609 67.8768 232.609L58.2572 234.492L44.4107 233.478L38.2891 225.656C38.2891 225.656 49.0748 220.586 44.4107 204.798L65.6906 209.868Z" fill="black"/>
<path d="M90.4678 327.483C90.4678 327.483 97.3182 342.113 91.9253 388.029C91.9253 388.029 93.5286 404.252 92.2169 407.294C90.9051 410.336 80.1194 451.617 80.1194 451.617C80.1194 451.617 66.2728 454.659 64.3781 445.534C64.3781 445.534 66.2729 432.498 66.1271 430.47C65.9813 428.442 69.1879 406.28 69.1879 406.28L62.629 363.406L57.6734 402.08C57.6734 402.08 57.6734 413.233 56.0701 415.695C54.4668 418.158 56.0701 467.695 56.0701 467.695C56.0701 467.695 60.5885 475.227 53.7381 475.372C46.8877 475.517 40.7661 475.227 40.183 470.447C39.6 465.667 39.3085 460.888 37.851 457.991C36.3935 455.094 34.4987 421.924 34.9359 410.336C35.3732 398.748 25.3162 339.216 28.5228 332.988C31.7294 326.759 90.4678 327.483 90.4678 327.483Z" fill="#2F2E41"/>
<path d="M58.2579 215.082C67.9176 215.082 75.7483 207.3 75.7483 197.701C75.7483 188.101 67.9176 180.319 58.2579 180.319C48.5983 180.319 40.7676 188.101 40.7676 197.701C40.7676 207.3 48.5983 215.082 58.2579 215.082Z" fill="#A0616A"/>
<path d="M40.7662 225.946C40.7662 225.946 51.4061 233.768 66.8559 227.539C66.8559 227.539 71.9573 225.077 71.52 221.311C71.0827 217.545 82.16 251.584 82.16 251.584L93.3829 310.826L92.7999 335.016C92.7999 335.016 87.8443 332.553 72.3945 338.057C56.9448 343.562 31.7295 331.829 31.7295 331.829L32.604 269.69L33.4785 233.478L35.8106 225.511C35.8106 225.511 36.9766 223.339 40.7662 225.946Z" fill="#F2F2F2"/>
<path d="M66.1758 216.222C66.1758 216.222 68.7505 215.807 71.2283 219.718C73.7061 223.628 79.5362 226.091 79.5362 226.091C79.5362 226.091 93.6743 226.96 95.7148 234.492C97.7554 242.024 102.857 252.308 105.335 271.283C107.812 290.258 112.768 320.531 113.497 322.993C114.225 325.456 112.476 332.988 114.517 335.305C116.557 337.623 100.087 337.623 100.087 337.623C100.087 337.623 98.6299 325.745 97.6096 325.745C96.5893 325.745 96.8808 333.712 97.9011 339.506C98.9214 345.3 90.4677 339.506 90.4677 339.506C90.4677 339.506 83.9088 312.999 77.6414 289.099C71.3741 265.199 67.7303 252.018 68.8963 246.659C70.0623 241.3 73.2689 225.946 70.9368 224.497C68.6048 223.049 66.1758 216.222 66.1758 216.222Z" fill="#2F2E41"/>
<path d="M45.1568 216.21C45.1568 216.21 41.3489 218.269 31.7292 225.077C22.1095 231.885 15.5506 237.099 15.5506 237.099C15.5506 237.099 11.761 239.996 9.429 257.233C7.09696 274.47 1.84985 319.083 3.89039 324.732C5.93094 330.381 6.6597 333.712 5.93093 337.044C5.20217 340.375 21.235 340.23 21.5265 339.506C21.818 338.782 21.0892 325.601 21.818 325.311C22.5468 325.021 26.4821 333.133 27.2108 339.94C27.9396 346.748 36.3933 352.108 38.2881 352.108C40.1829 352.108 49.9483 312.854 50.0941 286.057C50.2398 259.261 46.8875 236.665 44.4097 233.478C41.9319 230.291 45.1568 216.21 45.1568 216.21Z" fill="#2F2E41"/>
<path d="M70.791 452.921C70.791 452.921 71.957 449.734 76.0381 450.748C80.1192 451.762 82.8885 448.141 82.8885 448.141C82.8885 448.141 85.0748 447.851 83.6172 450.604C82.1597 453.356 80.9937 455.239 80.9937 455.239C80.9937 455.239 89.7389 475.083 84.0545 479.863C78.3702 484.643 71.8113 481.746 71.8113 481.746C71.8113 481.746 65.3982 477.255 65.6897 465.378C65.6897 465.378 65.3982 461.612 61.9001 455.528C58.4021 449.445 55.7785 440.175 60.0053 438.436C64.2322 436.698 65.3201 436.634 65.3201 436.634C65.3201 436.634 63.3422 445.624 68.4513 448.766L70.791 452.921Z" fill="#3F3D56"/>
<path d="M43.6814 475.372C43.6814 475.372 40.1833 468.854 46.0134 468.13C51.8435 467.406 58.1109 466.971 57.8194 470.013C57.5279 473.055 56.7991 477.69 56.7991 477.69L57.8194 481.021C57.8194 481.021 58.1109 489.278 59.1312 490.292C60.1515 491.306 65.6901 499.996 53.8841 499.996C42.0781 499.996 38.58 498.693 39.6003 495.941C40.6206 493.189 40.9121 479.573 40.9121 479.573L43.6814 475.372Z" fill="#3F3D56"/>
<path d="M52.7179 183.796C52.7179 183.796 60.88 185.968 65.1069 186.837C69.3337 187.706 68.8964 185.244 68.8964 185.244C68.8964 185.244 74.435 185.968 74.1435 185.389C73.852 184.809 76.4756 181.768 73.4148 178.291C70.354 174.815 71.2285 172.208 71.2285 172.208H68.6049L67.8761 171.194H63.7951C63.7951 171.194 60.7343 170.035 52.7178 171.194C44.7014 172.353 33.77 172.642 32.8955 177.422C32.021 182.202 27.5026 188.141 29.1059 190.893C30.7092 193.645 39.8916 204.943 40.7661 209.723C41.6406 214.503 45.724 215.565 45.5771 212.572C45.4302 209.578 41.3491 199.149 44.8472 198.715C48.3453 198.28 54.3211 189.445 52.7179 183.796Z" fill="#2F2E41"/>
<path d="M634.125 5.02682C631.233 5.18913 628.445 6.14864 626.071 7.79777C623.698 9.4469 621.834 11.7204 620.688 14.3635C617.328 22.4348 621.654 31.9157 628.148 37.8014C634.643 43.6871 642.985 47.0513 650.565 51.4733C660.746 57.4128 669.894 65.6578 674.988 76.2416C680.082 86.8253 680.624 99.9355 674.636 110.047C669.078 119.431 658.973 125.048 649.334 130.228" stroke="#3F3D56" stroke-miterlimit="10"/>
<path d="M642.685 11.4593C649.24 11.4593 654.555 8.89408 654.555 5.72967C654.555 2.56526 649.24 0 642.685 0C636.129 0 630.814 2.56526 630.814 5.72967C630.814 8.89408 636.129 11.4593 642.685 11.4593Z" fill="#24A021"/>
<path d="M652.181 49.2078C658.736 49.2078 664.051 46.6425 664.051 43.4781C664.051 40.3137 658.736 37.7484 652.181 37.7484C645.625 37.7484 640.311 40.3137 640.311 43.4781C640.311 46.6425 645.625 49.2078 652.181 49.2078Z" fill="#24A021"/>
<path d="M630.475 55.2745C637.03 55.2745 642.345 52.7092 642.345 49.5448C642.345 46.3804 637.03 43.8151 630.475 43.8151C623.919 43.8151 618.604 46.3804 618.604 49.5448C618.604 52.7092 623.919 55.2745 630.475 55.2745Z" fill="#24A021"/>
<path d="M664.39 86.9562C670.945 86.9562 676.26 84.3909 676.26 81.2265C676.26 78.0621 670.945 75.4968 664.39 75.4968C657.834 75.4968 652.52 78.0621 652.52 81.2265C652.52 84.3909 657.834 86.9562 664.39 86.9562Z" fill="#24A021"/>
<path d="M688.13 86.9562C694.686 86.9562 700 84.3909 700 81.2265C700 78.0621 694.686 75.4968 688.13 75.4968C681.574 75.4968 676.26 78.0621 676.26 81.2265C676.26 84.3909 681.574 86.9562 688.13 86.9562Z" fill="#24A021"/>
</g>
<defs>
<clipPath id="clip0">
<rect width="700" height="500" fill="white"/>
</clipPath>
</defs>
</svg>
