<?xml version="1.0"?>
<svg xmlns="http://www.w3.org/2000/svg" xmlns:xlink="http://www.w3.org/1999/xlink" xmlns:svgjs="http://svgjs.com/svgjs" version="1.1" width="512" height="512" x="0" y="0" viewBox="0 0 24 24" style="enable-background:new 0 0 512 512" xml:space="preserve" class=""><g><g xmlns="http://www.w3.org/2000/svg"><g><g><path d="m3.5 19c-1.103 0-2-.897-2-2s.897-2 2-2 2 .897 2 2-.897 2-2 2zm0-3c-.552 0-1 .449-1 1s.448 1 1 1 1-.449 1-1-.448-1-1-1z" fill="#fbfbfb" data-original="#000000" style=""/></g></g><g><g><path d="m6.5 24c-.276 0-.5-.224-.5-.5v-1.5c0-.551-.448-1-1-1h-3c-.552 0-1 .449-1 1v1.5c0 .276-.224.5-.5.5s-.5-.224-.5-.5v-1.5c0-1.103.897-2 2-2h3c1.103 0 2 .897 2 2v1.5c0 .276-.224.5-.5.5z" fill="#fbfbfb" data-original="#000000" style=""/></g></g></g><g xmlns="http://www.w3.org/2000/svg"><g><g><path d="m20.5 19c-1.103 0-2-.897-2-2s.897-2 2-2 2 .897 2 2-.897 2-2 2zm0-3c-.552 0-1 .449-1 1s.448 1 1 1 1-.449 1-1-.448-1-1-1z" fill="#fbfbfb" data-original="#000000" style=""/></g></g><g><g><path d="m23.5 24c-.276 0-.5-.224-.5-.5v-1.5c0-.551-.448-1-1-1h-3c-.552 0-1 .449-1 1v1.5c0 .276-.224.5-.5.5s-.5-.224-.5-.5v-1.5c0-1.103.897-2 2-2h3c1.103 0 2 .897 2 2v1.5c0 .276-.224.5-.5.5z" fill="#fbfbfb" data-original="#000000" style=""/></g></g></g><g xmlns="http://www.w3.org/2000/svg"><g><g><path d="m12 19c-1.103 0-2-.897-2-2s.897-2 2-2 2 .897 2 2-.897 2-2 2zm0-3c-.552 0-1 .449-1 1s.448 1 1 1 1-.449 1-1-.448-1-1-1z" fill="#fbfbfb" data-original="#000000" style=""/></g></g><g><g><path d="m15 24c-.276 0-.5-.224-.5-.5v-1.5c0-.551-.448-1-1-1h-3c-.552 0-1 .449-1 1v1.5c0 .276-.224.5-.5.5s-.5-.224-.5-.5v-1.5c0-1.103.897-2 2-2h3c1.103 0 2 .897 2 2v1.5c0 .276-.224.5-.5.5z" fill="#fbfbfb" data-original="#000000" style=""/></g></g></g><g xmlns="http://www.w3.org/2000/svg"><g><path d="m5.5 13h-4c-.276 0-.5-.224-.5-.5v-6c0-.276.224-.5.5-.5h4c.276 0 .5.224.5.5v6c0 .276-.224.5-.5.5zm-3.5-1h3v-5h-3z" fill="#fbfbfb" data-original="#000000" style=""/></g></g><g xmlns="http://www.w3.org/2000/svg"><g><path d="m14 13h-4c-.276 0-.5-.224-.5-.5v-9c0-.276.224-.5.5-.5h4c.276 0 .5.224.5.5v9c0 .276-.224.5-.5.5zm-3.5-1h3v-8h-3z" fill="#fbfbfb" data-original="#000000" style=""/></g></g><g xmlns="http://www.w3.org/2000/svg"><g><path d="m22.5 13h-4c-.276 0-.5-.224-.5-.5v-12c0-.276.224-.5.5-.5h4c.276 0 .5.224.5.5v12c0 .276-.224.5-.5.5zm-3.5-1h3v-11h-3z" fill="#fbfbfb" data-original="#000000" style=""/></g></g></g></svg>
