<svg width="756" height="512" viewBox="0 0 756 512" fill="none" xmlns="http://www.w3.org/2000/svg">
<path d="M756 0H0V512H756V0Z" fill="url(#paint0_linear)"/>
<path d="M749.156 7.52979H9.40527V489.412H749.156V7.52979Z" fill="white"/>
<path d="M749.156 7.52979H9.40527V55.2161H749.156V7.52979Z" fill="#BDBDBD"/>
<path d="M44.3918 43.0852C51.0042 43.0852 56.3647 37.8414 56.3647 31.3728C56.3647 24.9042 51.0042 19.6604 44.3918 19.6604C37.7794 19.6604 32.4189 24.9042 32.4189 31.3728C32.4189 37.8414 37.7794 43.0852 44.3918 43.0852Z" fill="#FF5252"/>
<path d="M78.6799 43.0852C85.2923 43.0852 90.6527 37.8414 90.6527 31.3728C90.6527 24.9042 85.2923 19.6604 78.6799 19.6604C72.0675 19.6604 66.707 24.9042 66.707 31.3728C66.707 37.8414 72.0675 43.0852 78.6799 43.0852Z" fill="#FFFF00"/>
<path d="M112.967 43.0852C119.579 43.0852 124.94 37.8414 124.94 31.3728C124.94 24.9042 119.579 19.6604 112.967 19.6604C106.355 19.6604 100.994 24.9042 100.994 31.3728C100.994 37.8414 106.355 43.0852 112.967 43.0852Z" fill="#69F0AE"/>
<path d="M204.393 104.575H78.6777V118.797H204.393V104.575Z" fill="#E0E0E0"/>
<path d="M204.393 128H78.6777V142.222H204.393V128Z" fill="#E0E0E0"/>
<path d="M288.203 151.425H78.6777V165.647H288.203V151.425Z" fill="#E0E0E0"/>
<path d="M327.542 174.85H78.6777V189.072H327.542V174.85Z" fill="#E0E0E0"/>
<path d="M126.572 263.53H88.9434V435.87H126.572V263.53Z" fill="#F5F5F5"/>
<path d="M189 263.53H151.371V435.87H189V263.53Z" fill="#F5F5F5"/>
<path d="M251.431 263.53H213.802V435.87H251.431V263.53Z" fill="#F5F5F5"/>
<path d="M313.861 263.53H276.232V435.87H313.861V263.53Z" fill="#F5F5F5"/>
<path d="M126.572 349.699H88.9434V435.869H126.572V349.699Z" fill="#2196F3"/>
<g opacity="0.4">
<path opacity="0.4" d="M126.572 313.725H88.9434V351.372H126.572V313.725Z" fill="#2196F3"/>
</g>
<path d="M189 368.406H151.371V435.869H189V368.406Z" fill="#69F0AE"/>
<path opacity="0.4" d="M189 324.601H151.371V368.405H189V324.601Z" fill="#69F0AE"/>
<path d="M251.431 337.15H213.802V435.869H251.431V337.15Z" fill="#6C63FF"/>
<path opacity="0.4" d="M251.431 302.85H213.802V337.151H251.431V302.85Z" fill="#6C63FF"/>
<path d="M313.861 371.451H276.232V435.869H313.861V371.451Z" fill="#FFFF00"/>
<path opacity="0.4" d="M313.861 351.372H276.232V371.451H313.861V351.372Z" fill="#FFFF00"/>
<path d="M540.915 142.222H540.487V324.601H540.932C565.655 324.601 589.365 314.994 606.847 297.892C624.328 280.791 634.149 257.597 634.149 233.412C634.149 209.227 624.328 186.032 606.847 168.931C589.365 151.83 565.655 142.222 540.932 142.222H540.915Z" fill="url(#paint1_linear)"/>
<path d="M452.828 203.52C447.976 217.228 446.535 231.87 448.626 246.232C450.716 260.593 456.277 274.26 464.848 286.099C473.418 297.937 484.751 307.605 497.906 314.301C511.06 320.998 525.658 324.529 540.486 324.601V246.178L452.828 203.52Z" fill="url(#paint2_linear)"/>
<path d="M540.487 142.222C521.186 142.305 502.388 148.246 486.687 159.226C470.985 170.206 459.155 185.682 452.828 203.52L540.469 246.187L540.487 142.222Z" fill="url(#paint3_linear)"/>
<path d="M540.915 146.405H540.487V320.418H540.915C564.504 320.418 587.126 311.251 603.806 294.934C620.486 278.617 629.856 256.487 629.856 233.411C629.856 210.336 620.486 188.205 603.806 171.888C587.126 155.572 564.504 146.405 540.915 146.405V146.405Z" fill="#6C63FF"/>
<path d="M456.864 204.892C452.235 217.97 450.861 231.939 452.855 245.641C454.849 259.342 460.154 272.381 468.329 283.675C476.505 294.97 487.315 304.195 499.864 310.585C512.413 316.975 526.338 320.346 540.485 320.419V245.593L456.864 204.892Z" fill="#2196F3"/>
<path d="M540.483 146.405C522.072 146.486 504.14 152.155 489.162 162.63C474.184 173.104 462.898 187.868 456.861 204.883L540.483 245.592V146.405Z" fill="#69F0AE"/>
<path d="M459.243 343.007H448.125V354.719H459.243V343.007Z" fill="#2196F3"/>
<path d="M551.605 343.007H540.487V354.719H551.605V343.007Z" fill="#7C4DFF"/>
<path d="M643.97 343.007H632.853V354.719H643.97V343.007Z" fill="#69F0AE"/>
<path d="M501.148 345.516H462.664V352.209H501.148V345.516Z" fill="#F5F5F5"/>
<path d="M594.367 345.516H555.883V352.209H594.367V345.516Z" fill="#F5F5F5"/>
<path d="M687.583 345.516H649.099V352.209H687.583V345.516Z" fill="#F5F5F5"/>
<defs>
<linearGradient id="paint0_linear" x1="378" y1="512" x2="378" y2="0" gradientUnits="userSpaceOnUse">
<stop stop-color="#808080" stop-opacity="0.25"/>
<stop offset="0.54" stop-color="#808080" stop-opacity="0.12"/>
<stop offset="1" stop-color="#808080" stop-opacity="0.1"/>
</linearGradient>
<linearGradient id="paint1_linear" x1="79660.5" y1="97167.9" x2="79660.5" y2="57409.3" gradientUnits="userSpaceOnUse">
<stop stop-color="#808080" stop-opacity="0.25"/>
<stop offset="0.54" stop-color="#808080" stop-opacity="0.12"/>
<stop offset="1" stop-color="#808080" stop-opacity="0.1"/>
</linearGradient>
<linearGradient id="paint2_linear" x1="68718.5" y1="64617.6" x2="68718.5" y2="47094.7" gradientUnits="userSpaceOnUse">
<stop stop-color="#808080" stop-opacity="0.25"/>
<stop offset="0.54" stop-color="#808080" stop-opacity="0.12"/>
<stop offset="1" stop-color="#808080" stop-opacity="0.1"/>
</linearGradient>
<linearGradient id="paint3_linear" x1="65209.6" y1="45705.7" x2="65209.6" y2="32788.1" gradientUnits="userSpaceOnUse">
<stop stop-color="#808080" stop-opacity="0.25"/>
<stop offset="0.54" stop-color="#808080" stop-opacity="0.12"/>
<stop offset="1" stop-color="#808080" stop-opacity="0.1"/>
</linearGradient>
</defs>
</svg>
